<?xml version="1.0" encoding="utf-8" standalone="no"?>
<!DOCTYPE svg PUBLIC "-//W3C//DTD SVG 1.1//EN"
  "http://www.w3.org/Graphics/SVG/1.1/DTD/svg11.dtd">
<svg xmlns:xlink="http://www.w3.org/1999/xlink" width="434.88pt" height="432.879278pt" viewBox="0 0 434.88 432.879278" xmlns="http://www.w3.org/2000/svg" version="1.1">
 <metadata>
  <rdf:RDF xmlns:dc="http://purl.org/dc/elements/1.1/" xmlns:cc="http://creativecommons.org/ns#" xmlns:rdf="http://www.w3.org/1999/02/22-rdf-syntax-ns#">
   <cc:Work>
    <dc:type rdf:resource="http://purl.org/dc/dcmitype/StillImage"/>
    <dc:date>2026-04-07T23:53:57.263769</dc:date>
    <dc:format>image/svg+xml</dc:format>
    <dc:creator>
     <cc:Agent>
      <dc:title>Matplotlib v3.10.0, https://matplotlib.org/</dc:title>
     </cc:Agent>
    </dc:creator>
   </cc:Work>
  </rdf:RDF>
 </metadata>
 <defs>
  <style type="text/css">*{stroke-linejoin: round; stroke-linecap: butt}</style>
 </defs>
 <g id="figure_1">
  <g id="patch_1">
   <path d="M 0 432.879278 
L 434.88 432.879278 
L 434.88 0 
L 0 0 
z
" style="fill: #ffffff"/>
  </g>
  <g id="axes_1">
   <g id="line2d_1">
    <path d="M 66.780351 307.259378 
L 80.213998 326.576833 
L 83.355065 330.712324 
L 86.629555 334.737415 
L 90.033706 338.647485 
L 93.563609 342.438041 
L 97.215209 346.104731 
L 100.984312 349.643343 
L 104.866589 353.049812 
L 108.85758 356.320225 
L 112.952703 359.450828 
L 117.147253 362.438022 
L 121.436413 365.278379 
L 125.815256 367.968635 
L 130.278752 370.505701 
L 134.821776 372.886661 
L 139.439109 375.108783 
L 144.125447 377.169513 
L 148.875409 379.066484 
L 153.683538 380.797518 
L 158.544312 382.360627 
L 163.452148 383.754014 
L 168.401409 384.976081 
L 173.38641 386.025422 
L 178.401425 386.900833 
L 183.440696 387.601309 
L 188.498433 388.126044 
L 193.568827 388.474437 
L 198.646055 388.646086 
L 203.724285 388.640795 
L 208.797684 388.45857 
L 213.860425 388.099621 
L 218.906694 387.564358 
L 223.930694 386.853398 
L 228.926654 385.967557 
L 233.888837 384.907852 
L 238.811543 383.6755 
L 243.689118 382.271917 
L 248.51596 380.698716 
L 253.286524 378.957702 
L 257.995332 377.050876 
L 262.636974 374.980427 
L 267.206121 372.748735 
L 271.697523 370.358361 
L 276.106021 367.812052 
L 280.426554 365.112733 
L 284.654157 362.263503 
L 288.783975 359.267635 
L 292.811265 356.12857 
L 296.731402 352.849914 
L 300.539882 349.435433 
L 304.232331 345.889047 
L 307.804509 342.214831 
L 311.252312 338.417005 
L 314.57178 334.49993 
L 317.7591 330.468106 
L 320.810613 326.326164 
L 323.722812 322.07886 
L 326.492353 317.731074 
L 329.116055 313.287799 
L 331.590905 308.754139 
L 333.914059 304.1353 
L 336.08285 299.436588 
L 338.094786 294.663399 
L 339.947557 289.821217 
L 341.639034 284.915602 
L 343.167275 279.95219 
L 344.530525 274.93668 
L 345.727218 269.874834 
L 346.755978 264.772465 
L 347.615625 259.635435 
L 348.305172 254.469643 
L 348.823826 249.281022 
L 349.170991 244.075533 
L 349.346269 238.859153 
L 349.349458 233.637875 
L 349.180555 228.417695 
L 348.839754 223.20461 
L 348.327447 218.004606 
L 347.64422 212.823657 
L 346.790861 207.667713 
L 345.768347 202.542697 
L 344.577855 197.454493 
L 343.220751 192.408948 
L 341.698594 187.411856 
L 340.013133 182.468956 
L 338.166303 177.585926 
L 336.160225 172.768374 
L 333.997204 168.021834 
L 331.679724 163.351757 
L 329.210447 158.763508 
L 326.592208 154.262356 
L 323.828016 149.853472 
L 320.921045 145.541918 
L 317.874634 141.332648 
L 314.692282 137.230496 
L 311.377644 133.240174 
L 307.934528 129.366264 
L 304.366887 125.613216 
L 300.67882 121.985342 
L 296.874563 118.486807 
L 292.958485 115.121631 
L 288.935084 111.893678 
L 284.808981 108.806656 
L 280.584916 105.86411 
L 276.26774 103.069421 
L 271.862411 100.425797 
L 267.37399 97.936277 
L 262.807632 95.603718 
L 258.168582 93.430801 
L 253.462167 91.42002 
L 248.693794 89.573686 
L 243.868939 87.893919 
L 238.993145 86.382648 
L 234.072011 85.04161 
L 229.111189 83.872344 
L 224.116379 82.876194 
L 219.093315 82.054303 
L 214.047769 81.407616 
L 208.985534 80.936875 
L 203.912426 80.642622 
L 198.834271 80.525193 
L 193.756902 80.584725 
L 188.68615 80.821148 
L 183.627841 81.234191 
L 178.587782 81.823379 
L 173.571765 82.588037 
L 168.585549 83.527285 
L 163.634862 84.640045 
L 158.72539 85.925039 
L 153.862772 87.380791 
L 149.052593 89.005628 
L 144.300378 90.797685 
L 139.611585 92.754903 
L 134.9916 94.875034 
L 130.445729 97.155644 
L 125.979193 99.594112 
L 121.597122 102.187638 
L 117.30455 104.933243 
L 113.106408 107.827773 
L 109.007515 110.867904 
L 105.012582 114.050145 
L 101.126196 117.370839 
L 97.35282 120.826173 
L 93.69679 124.412179 
L 90.162304 128.124737 
L 86.753422 131.959583 
L 83.474059 135.912313 
L 80.327982 139.978386 
L 77.318804 144.153133 
L 74.449982 148.431759 
L 71.72481 152.809348 
L 69.146419 157.280874 
L 66.71777 161.8412 
L 64.441653 166.485088 
L 62.320682 171.207205 
L 60.357293 176.002127 
L 58.553741 180.864346 
L 56.912098 185.788278 
L 55.434249 190.768267 
L 54.121892 195.798594 
L 52.976534 200.87348 
L 51.99949 205.987097 
L 51.191883 211.133572 
L 50.554641 216.306993 
L 50.088494 221.501418 
L 49.793979 226.710882 
L 49.10215 246.771053 
L 49.10215 246.771053 
" clip-path="url(#p4922c96f67)" style="fill: none; stroke: #ffffff; stroke-width: 14; stroke-linecap: round"/>
    <path d="M 66.780351 307.259378 
L 80.213998 326.576833 
L 83.355065 330.712324 
L 86.629555 334.737415 
L 90.033706 338.647485 
L 93.563609 342.438041 
L 97.215209 346.104731 
L 100.984312 349.643343 
L 104.866589 353.049812 
L 108.85758 356.320225 
L 112.952703 359.450828 
L 117.147253 362.438022 
L 121.436413 365.278379 
L 125.815256 367.968635 
L 130.278752 370.505701 
L 134.821776 372.886661 
L 139.439109 375.108783 
L 144.125447 377.169513 
L 148.875409 379.066484 
L 153.683538 380.797518 
L 158.544312 382.360627 
L 163.452148 383.754014 
L 168.401409 384.976081 
L 173.38641 386.025422 
L 178.401425 386.900833 
L 183.440696 387.601309 
L 188.498433 388.126044 
L 193.568827 388.474437 
L 198.646055 388.646086 
L 203.724285 388.640795 
L 208.797684 388.45857 
L 213.860425 388.099621 
L 218.906694 387.564358 
L 223.930694 386.853398 
L 228.926654 385.967557 
L 233.888837 384.907852 
L 238.811543 383.6755 
L 243.689118 382.271917 
L 248.51596 380.698716 
L 253.286524 378.957702 
L 257.995332 377.050876 
L 262.636974 374.980427 
L 267.206121 372.748735 
L 271.697523 370.358361 
L 276.106021 367.812052 
L 280.426554 365.112733 
L 284.654157 362.263503 
L 288.783975 359.267635 
L 292.811265 356.12857 
L 296.731402 352.849914 
L 300.539882 349.435433 
L 304.232331 345.889047 
L 307.804509 342.214831 
L 311.252312 338.417005 
L 314.57178 334.49993 
L 317.7591 330.468106 
L 320.810613 326.326164 
L 323.722812 322.07886 
L 326.492353 317.731074 
L 329.116055 313.287799 
L 331.590905 308.754139 
L 333.914059 304.1353 
L 336.08285 299.436588 
L 338.094786 294.663399 
L 339.947557 289.821217 
L 341.639034 284.915602 
L 343.167275 279.95219 
L 344.530525 274.93668 
L 345.727218 269.874834 
L 346.755978 264.772465 
L 347.615625 259.635435 
L 348.305172 254.469643 
L 348.823826 249.281022 
L 349.170991 244.075533 
L 349.346269 238.859153 
L 349.349458 233.637875 
L 349.180555 228.417695 
L 348.839754 223.20461 
L 348.327447 218.004606 
L 347.64422 212.823657 
L 346.790861 207.667713 
L 345.768347 202.542697 
L 344.577855 197.454493 
L 343.220751 192.408948 
L 341.698594 187.411856 
L 340.013133 182.468956 
L 338.166303 177.585926 
L 336.160225 172.768374 
L 333.997204 168.021834 
L 331.679724 163.351757 
L 329.210447 158.763508 
L 326.592208 154.262356 
L 323.828016 149.853472 
L 320.921045 145.541918 
L 317.874634 141.332648 
L 314.692282 137.230496 
L 311.377644 133.240174 
L 307.934528 129.366264 
L 304.366887 125.613216 
L 300.67882 121.985342 
L 296.874563 118.486807 
L 292.958485 115.121631 
L 288.935084 111.893678 
L 284.808981 108.806656 
L 280.584916 105.86411 
L 276.26774 103.069421 
L 271.862411 100.425797 
L 267.37399 97.936277 
L 262.807632 95.603718 
L 258.168582 93.430801 
L 253.462167 91.42002 
L 248.693794 89.573686 
L 243.868939 87.893919 
L 238.993145 86.382648 
L 234.072011 85.04161 
L 229.111189 83.872344 
L 224.116379 82.876194 
L 219.093315 82.054303 
L 214.047769 81.407616 
L 208.985534 80.936875 
L 203.912426 80.642622 
L 198.834271 80.525193 
L 193.756902 80.584725 
L 188.68615 80.821148 
L 183.627841 81.234191 
L 178.587782 81.823379 
L 173.571765 82.588037 
L 168.585549 83.527285 
L 163.634862 84.640045 
L 158.72539 85.925039 
L 153.862772 87.380791 
L 149.052593 89.005628 
L 144.300378 90.797685 
L 139.611585 92.754903 
L 134.9916 94.875034 
L 130.445729 97.155644 
L 125.979193 99.594112 
L 121.597122 102.187638 
L 117.30455 104.933243 
L 113.106408 107.827773 
L 109.007515 110.867904 
L 105.012582 114.050145 
L 101.126196 117.370839 
L 97.35282 120.826173 
L 93.69679 124.412179 
L 90.162304 128.124737 
L 86.753422 131.959583 
L 83.474059 135.912313 
L 80.327982 139.978386 
L 77.318804 144.153133 
L 74.449982 148.431759 
L 71.72481 152.809348 
L 69.146419 157.280874 
L 66.71777 161.8412 
L 64.441653 166.485088 
L 62.320682 171.207205 
L 60.357293 176.002127 
L 58.553741 180.864346 
L 56.912098 185.788278 
L 55.434249 190.768267 
L 54.121892 195.798594 
L 52.976534 200.87348 
L 51.99949 205.987097 
L 51.191883 211.133572 
L 50.554641 216.306993 
L 50.088494 221.501418 
L 49.793979 226.710882 
L 49.10215 246.771053 
L 49.10215 246.771053 
" clip-path="url(#p4922c96f67)" style="fill: none; stroke: #43b38a; stroke-width: 10; stroke-linecap: round"/>
   </g>
   <g id="line2d_2">
    <path d="M 342.208072 139.535591 
L 322.192138 126.521514 
L 317.381978 123.728983 
L 312.449883 121.116702 
L 307.403259 118.688592 
L 302.249684 116.448301 
L 296.996899 114.399193 
L 291.65279 112.544344 
L 286.225383 110.886541 
L 280.722828 109.428272 
L 275.153388 108.171727 
L 269.525428 107.118794 
L 263.847397 106.271054 
L 258.127823 105.629779 
L 252.375295 105.195933 
L 246.598452 104.970167 
L 240.805967 104.95282 
L 235.006541 105.143918 
L 229.208881 105.543175 
L 223.421694 106.14999 
L 217.653671 106.963452 
L 211.913473 107.982341 
L 206.20972 109.205125 
L 200.550977 110.629969 
L 194.945743 112.254733 
L 189.402434 114.076976 
L 183.929375 116.093964 
L 178.534784 118.302666 
L 173.226763 120.699766 
L 168.013282 123.281664 
L 162.902171 126.044483 
L 157.901104 128.984075 
L 153.017592 132.096024 
L 148.258969 135.375658 
L 143.63238 138.818051 
L 139.144772 142.418035 
L 134.802886 146.170203 
L 130.61324 150.068921 
L 126.582127 154.108334 
L 122.7156 158.282376 
L 119.019466 162.584779 
L 115.499274 167.009082 
L 112.160311 171.548641 
L 109.007591 176.19664 
L 106.045849 180.946098 
L 103.279531 185.789883 
L 100.712793 190.720722 
L 98.349488 195.731209 
L 96.193166 200.813821 
L 94.247065 205.960926 
L 92.514106 211.164793 
L 90.996893 216.417608 
L 89.697704 221.711484 
L 88.61849 227.03847 
L 87.760871 232.390567 
L 87.126135 237.759738 
L 86.715236 243.137921 
L 86.52879 248.517037 
L 86.567078 253.889011 
L 86.830042 259.245775 
L 87.317287 264.579284 
L 88.028081 269.881531 
L 88.961358 275.144551 
L 90.115715 280.360442 
L 91.489419 285.521371 
L 93.080407 290.619589 
L 94.886291 295.647439 
L 96.904357 300.59737 
L 99.131576 305.461951 
L 101.564603 310.233875 
L 104.199785 314.905977 
L 107.033164 319.47124 
L 110.060485 323.92281 
L 113.277203 328.254001 
L 116.678486 332.458309 
L 120.259228 336.529421 
L 124.01405 340.461223 
L 127.937315 344.24781 
L 132.023131 347.883498 
L 136.265363 351.362825 
L 140.657639 354.680567 
L 145.193364 357.831742 
L 149.865727 360.811617 
L 154.667711 363.615719 
L 159.592106 366.239836 
L 164.631516 368.680027 
L 169.778374 370.932628 
L 175.024951 372.994256 
L 180.363367 374.861816 
L 185.785608 376.532503 
L 191.283529 378.003807 
L 196.848876 379.273521 
L 202.47329 380.339736 
L 208.148325 381.200853 
L 213.865459 381.855577 
L 219.616108 382.302925 
L 225.391635 382.542226 
L 231.183367 382.573121 
L 236.982607 382.395562 
L 242.780646 382.009818 
L 248.568777 381.416466 
L 254.33831 380.616398 
L 260.080578 379.610815 
L 265.78696 378.401228 
L 271.448887 376.989453 
L 277.057855 375.377609 
L 282.605442 373.568118 
L 288.083317 371.563697 
L 293.483254 369.367355 
L 298.797144 366.982391 
L 304.017008 364.412387 
L 309.135006 361.661201 
L 314.143454 358.732965 
L 319.034829 355.632077 
L 323.801787 352.363192 
L 328.43717 348.931221 
L 332.934015 345.341316 
L 337.285572 341.598868 
L 341.485304 337.709498 
L 345.526905 333.679046 
L 349.404306 329.513564 
L 353.111685 325.219308 
L 356.643473 320.802726 
L 359.994368 316.270451 
L 363.159337 311.629289 
L 365.40818 308.081146 
L 375.072525 292.503197 
L 375.072525 292.503197 
" clip-path="url(#p4922c96f67)" style="fill: none; stroke: #ffffff; stroke-width: 14; stroke-linecap: round"/>
    <path d="M 342.208072 139.535591 
L 322.192138 126.521514 
L 317.381978 123.728983 
L 312.449883 121.116702 
L 307.403259 118.688592 
L 302.249684 116.448301 
L 296.996899 114.399193 
L 291.65279 112.544344 
L 286.225383 110.886541 
L 280.722828 109.428272 
L 275.153388 108.171727 
L 269.525428 107.118794 
L 263.847397 106.271054 
L 258.127823 105.629779 
L 252.375295 105.195933 
L 246.598452 104.970167 
L 240.805967 104.95282 
L 235.006541 105.143918 
L 229.208881 105.543175 
L 223.421694 106.14999 
L 217.653671 106.963452 
L 211.913473 107.982341 
L 206.20972 109.205125 
L 200.550977 110.629969 
L 194.945743 112.254733 
L 189.402434 114.076976 
L 183.929375 116.093964 
L 178.534784 118.302666 
L 173.226763 120.699766 
L 168.013282 123.281664 
L 162.902171 126.044483 
L 157.901104 128.984075 
L 153.017592 132.096024 
L 148.258969 135.375658 
L 143.63238 138.818051 
L 139.144772 142.418035 
L 134.802886 146.170203 
L 130.61324 150.068921 
L 126.582127 154.108334 
L 122.7156 158.282376 
L 119.019466 162.584779 
L 115.499274 167.009082 
L 112.160311 171.548641 
L 109.007591 176.19664 
L 106.045849 180.946098 
L 103.279531 185.789883 
L 100.712793 190.720722 
L 98.349488 195.731209 
L 96.193166 200.813821 
L 94.247065 205.960926 
L 92.514106 211.164793 
L 90.996893 216.417608 
L 89.697704 221.711484 
L 88.61849 227.03847 
L 87.760871 232.390567 
L 87.126135 237.759738 
L 86.715236 243.137921 
L 86.52879 248.517037 
L 86.567078 253.889011 
L 86.830042 259.245775 
L 87.317287 264.579284 
L 88.028081 269.881531 
L 88.961358 275.144551 
L 90.115715 280.360442 
L 91.489419 285.521371 
L 93.080407 290.619589 
L 94.886291 295.647439 
L 96.904357 300.59737 
L 99.131576 305.461951 
L 101.564603 310.233875 
L 104.199785 314.905977 
L 107.033164 319.47124 
L 110.060485 323.92281 
L 113.277203 328.254001 
L 116.678486 332.458309 
L 120.259228 336.529421 
L 124.01405 340.461223 
L 127.937315 344.24781 
L 132.023131 347.883498 
L 136.265363 351.362825 
L 140.657639 354.680567 
L 145.193364 357.831742 
L 149.865727 360.811617 
L 154.667711 363.615719 
L 159.592106 366.239836 
L 164.631516 368.680027 
L 169.778374 370.932628 
L 175.024951 372.994256 
L 180.363367 374.861816 
L 185.785608 376.532503 
L 191.283529 378.003807 
L 196.848876 379.273521 
L 202.47329 380.339736 
L 208.148325 381.200853 
L 213.865459 381.855577 
L 219.616108 382.302925 
L 225.391635 382.542226 
L 231.183367 382.573121 
L 236.982607 382.395562 
L 242.780646 382.009818 
L 248.568777 381.416466 
L 254.33831 380.616398 
L 260.080578 379.610815 
L 265.78696 378.401228 
L 271.448887 376.989453 
L 277.057855 375.377609 
L 282.605442 373.568118 
L 288.083317 371.563697 
L 293.483254 369.367355 
L 298.797144 366.982391 
L 304.017008 364.412387 
L 309.135006 361.661201 
L 314.143454 358.732965 
L 319.034829 355.632077 
L 323.801787 352.363192 
L 328.43717 348.931221 
L 332.934015 345.341316 
L 337.285572 341.598868 
L 341.485304 337.709498 
L 345.526905 333.679046 
L 349.404306 329.513564 
L 353.111685 325.219308 
L 356.643473 320.802726 
L 359.994368 316.270451 
L 363.159337 311.629289 
L 365.40818 308.081146 
L 375.072525 292.503197 
L 375.072525 292.503197 
" clip-path="url(#p4922c96f67)" style="fill: none; stroke: #d8b23c; stroke-width: 10; stroke-linecap: round"/>
   </g>
   <g id="line2d_3">
    <path d="M 390.664708 179.98862 
L 381.701482 155.019346 
L 379.74577 150.241601 
L 377.618775 145.514309 
L 375.322747 140.842472 
L 372.860116 136.231033 
L 370.233486 131.68487 
L 367.445637 127.208794 
L 364.499518 122.807539 
L 361.398246 118.485763 
L 358.145103 114.248038 
L 354.74353 110.098847 
L 351.197125 106.042581 
L 347.509642 102.083529 
L 343.684981 98.225882 
L 339.727189 94.473721 
L 335.640452 90.831015 
L 331.429096 87.301618 
L 325.62782 82.778451 
L 319.623843 78.471853 
L 313.428457 74.389924 
L 307.053314 70.540342 
L 300.510404 66.930346 
L 293.812033 63.566726 
L 286.970799 60.455807 
L 279.999568 57.603442 
L 272.911451 55.014994 
L 265.719778 52.695331 
L 258.438077 50.648817 
L 251.080042 48.879299 
L 243.659511 47.390107 
L 236.19044 46.184041 
L 228.686877 45.263369 
L 221.162934 44.629823 
L 213.632762 44.284594 
L 206.110523 44.228332 
L 198.610364 44.461142 
L 191.146391 44.982587 
L 183.732642 45.791685 
L 176.383061 46.886916 
L 169.111469 48.266219 
L 161.931544 49.927 
L 154.856788 51.866136 
L 149.627751 53.500984 
L 144.470893 55.288636 
L 139.39167 57.227201 
L 134.395456 59.314627 
L 129.487537 61.548707 
L 124.673106 63.927076 
L 119.957255 66.447218 
L 115.344974 69.106468 
L 110.841144 71.902011 
L 106.450528 74.83089 
L 102.177773 77.890006 
L 98.027399 81.076123 
L 94.003796 84.38587 
L 90.111222 87.815745 
L 86.353795 91.36212 
L 82.735491 95.021241 
L 79.260137 98.789239 
L 75.93141 102.662126 
L 72.752833 106.635806 
L 69.727767 110.706073 
L 66.859414 114.868622 
L 64.150809 119.119048 
L 61.604816 123.452856 
L 59.224129 127.865459 
L 57.011268 132.35219 
L 54.968574 136.9083 
L 53.098207 141.528971 
L 51.402146 146.209313 
L 49.882187 150.944375 
L 48.539936 155.729146 
L 47.376814 160.558566 
L 46.394052 165.427523 
L 45.592689 170.330868 
L 44.973573 175.263411 
L 44.53736 180.219936 
L 44.28451 185.195197 
L 44.215292 190.183931 
L 44.329778 195.18086 
L 44.627847 200.180698 
L 45.109184 205.178154 
L 45.77328 210.167941 
L 46.619432 215.14478 
L 47.646745 220.103406 
L 48.854132 225.038572 
L 50.240316 229.945057 
L 51.803829 234.81767 
L 53.543019 239.651257 
L 55.456044 244.440702 
L 57.540881 249.180939 
L 59.795324 253.866953 
L 62.216989 258.493786 
L 64.803312 263.056543 
L 67.551557 267.550396 
L 70.458818 271.970592 
L 73.522017 276.312453 
L 76.737915 280.571385 
L 80.103109 284.742884 
L 83.614038 288.822535 
L 87.266988 292.806023 
L 91.058095 296.689133 
L 94.983347 300.467756 
L 99.038591 304.137895 
L 103.219537 307.695667 
L 108.982004 312.258081 
L 114.949226 316.605473 
L 121.109978 320.729667 
L 127.452674 324.622906 
L 133.965386 328.277868 
L 140.635865 331.687678 
L 147.451565 334.845925 
L 154.399667 337.746668 
L 161.467105 340.384451 
L 168.640585 342.754314 
L 175.906617 344.851799 
L 183.251536 346.672962 
L 190.661526 348.214377 
L 198.122652 349.473146 
L 205.620882 350.446901 
L 213.142113 351.13381 
L 220.672199 351.532583 
L 228.196979 351.642468 
L 235.702301 351.463259 
L 243.174049 350.995294 
L 250.59817 350.239451 
L 257.960701 349.197154 
L 265.247796 347.870362 
L 272.44575 346.26157 
L 279.541024 344.373804 
L 284.787062 342.77702 
L 289.962281 341.026988 
L 295.061207 339.125561 
L 300.078446 337.074751 
L 305.008688 334.876726 
L 309.846719 332.533813 
L 314.587418 330.048491 
L 319.225771 327.423388 
L 323.756871 324.661282 
L 328.175923 321.765095 
L 332.478252 318.737892 
L 336.659306 315.582875 
L 340.714663 312.303383 
L 344.64003 308.902884 
L 348.431256 305.384977 
L 352.084329 301.753383 
L 355.595385 298.011945 
L 358.960708 294.164621 
L 362.176738 290.215481 
L 364.236131 287.528217 
L 377.144785 270.475415 
L 377.144785 270.475415 
" clip-path="url(#p4922c96f67)" style="fill: none; stroke: #ffffff; stroke-width: 14; stroke-linecap: round"/>
    <path d="M 390.664708 179.98862 
L 381.701482 155.019346 
L 379.74577 150.241601 
L 377.618775 145.514309 
L 375.322747 140.842472 
L 372.860116 136.231033 
L 370.233486 131.68487 
L 367.445637 127.208794 
L 364.499518 122.807539 
L 361.398246 118.485763 
L 358.145103 114.248038 
L 354.74353 110.098847 
L 351.197125 106.042581 
L 347.509642 102.083529 
L 343.684981 98.225882 
L 339.727189 94.473721 
L 335.640452 90.831015 
L 331.429096 87.301618 
L 325.62782 82.778451 
L 319.623843 78.471853 
L 313.428457 74.389924 
L 307.053314 70.540342 
L 300.510404 66.930346 
L 293.812033 63.566726 
L 286.970799 60.455807 
L 279.999568 57.603442 
L 272.911451 55.014994 
L 265.719778 52.695331 
L 258.438077 50.648817 
L 251.080042 48.879299 
L 243.659511 47.390107 
L 236.19044 46.184041 
L 228.686877 45.263369 
L 221.162934 44.629823 
L 213.632762 44.284594 
L 206.110523 44.228332 
L 198.610364 44.461142 
L 191.146391 44.982587 
L 183.732642 45.791685 
L 176.383061 46.886916 
L 169.111469 48.266219 
L 161.931544 49.927 
L 154.856788 51.866136 
L 149.627751 53.500984 
L 144.470893 55.288636 
L 139.39167 57.227201 
L 134.395456 59.314627 
L 129.487537 61.548707 
L 124.673106 63.927076 
L 119.957255 66.447218 
L 115.344974 69.106468 
L 110.841144 71.902011 
L 106.450528 74.83089 
L 102.177773 77.890006 
L 98.027399 81.076123 
L 94.003796 84.38587 
L 90.111222 87.815745 
L 86.353795 91.36212 
L 82.735491 95.021241 
L 79.260137 98.789239 
L 75.93141 102.662126 
L 72.752833 106.635806 
L 69.727767 110.706073 
L 66.859414 114.868622 
L 64.150809 119.119048 
L 61.604816 123.452856 
L 59.224129 127.865459 
L 57.011268 132.35219 
L 54.968574 136.9083 
L 53.098207 141.528971 
L 51.402146 146.209313 
L 49.882187 150.944375 
L 48.539936 155.729146 
L 47.376814 160.558566 
L 46.394052 165.427523 
L 45.592689 170.330868 
L 44.973573 175.263411 
L 44.53736 180.219936 
L 44.28451 185.195197 
L 44.215292 190.183931 
L 44.329778 195.18086 
L 44.627847 200.180698 
L 45.109184 205.178154 
L 45.77328 210.167941 
L 46.619432 215.14478 
L 47.646745 220.103406 
L 48.854132 225.038572 
L 50.240316 229.945057 
L 51.803829 234.81767 
L 53.543019 239.651257 
L 55.456044 244.440702 
L 57.540881 249.180939 
L 59.795324 253.866953 
L 62.216989 258.493786 
L 64.803312 263.056543 
L 67.551557 267.550396 
L 70.458818 271.970592 
L 73.522017 276.312453 
L 76.737915 280.571385 
L 80.103109 284.742884 
L 83.614038 288.822535 
L 87.266988 292.806023 
L 91.058095 296.689133 
L 94.983347 300.467756 
L 99.038591 304.137895 
L 103.219537 307.695667 
L 108.982004 312.258081 
L 114.949226 316.605473 
L 121.109978 320.729667 
L 127.452674 324.622906 
L 133.965386 328.277868 
L 140.635865 331.687678 
L 147.451565 334.845925 
L 154.399667 337.746668 
L 161.467105 340.384451 
L 168.640585 342.754314 
L 175.906617 344.851799 
L 183.251536 346.672962 
L 190.661526 348.214377 
L 198.122652 349.473146 
L 205.620882 350.446901 
L 213.142113 351.13381 
L 220.672199 351.532583 
L 228.196979 351.642468 
L 235.702301 351.463259 
L 243.174049 350.995294 
L 250.59817 350.239451 
L 257.960701 349.197154 
L 265.247796 347.870362 
L 272.44575 346.26157 
L 279.541024 344.373804 
L 284.787062 342.77702 
L 289.962281 341.026988 
L 295.061207 339.125561 
L 300.078446 337.074751 
L 305.008688 334.876726 
L 309.846719 332.533813 
L 314.587418 330.048491 
L 319.225771 327.423388 
L 323.756871 324.661282 
L 328.175923 321.765095 
L 332.478252 318.737892 
L 336.659306 315.582875 
L 340.714663 312.303383 
L 344.64003 308.902884 
L 348.431256 305.384977 
L 352.084329 301.753383 
L 355.595385 298.011945 
L 358.960708 294.164621 
L 362.176738 290.215481 
L 364.236131 287.528217 
L 377.144785 270.475415 
L 377.144785 270.475415 
" clip-path="url(#p4922c96f67)" style="fill: none; stroke: #57beea; stroke-width: 10; stroke-linecap: round"/>
   </g>
  </g>
 </g>
 <defs>
  <clipPath id="p4922c96f67">
   <rect x="1.44" y="1.44" width="432" height="429.999278"/>
  </clipPath>
 </defs>
</svg>
